<mxfile host="app.diagrams.net" modified="2022-11-07T06:09:18.761Z" agent="5.0 (Macintosh; Intel Mac OS X 10_15_7) AppleWebKit/537.36 (KHTML, like Gecko) Chrome/107.0.0.0 Safari/537.36 Edg/107.0.1418.28" etag="i7iZDWeocrEYhRSmkT-X" version="20.5.2" type="github">
  <diagram id="vRCYwa2Knpv_MkIIKfLR" name="Page-1">
    <mxGraphModel dx="1113" dy="716" grid="1" gridSize="10" guides="1" tooltips="1" connect="1" arrows="1" fold="1" page="1" pageScale="1" pageWidth="1100" pageHeight="850" math="1" shadow="0">
      <root>
        <mxCell id="0" />
        <mxCell id="1" parent="0" />
        <mxCell id="Sn8MXv950jrQbH95oBH5-33" value="" style="shape=table;html=1;whiteSpace=wrap;startSize=0;container=1;collapsible=0;childLayout=tableLayout;fillColor=#d5e8d4;strokeColor=#82b366;" vertex="1" parent="1">
          <mxGeometry x="90" y="425" width="180" height="40" as="geometry" />
        </mxCell>
        <mxCell id="Sn8MXv950jrQbH95oBH5-34" value="" style="shape=tableRow;horizontal=0;startSize=0;swimlaneHead=0;swimlaneBody=0;top=0;left=0;bottom=0;right=0;collapsible=0;dropTarget=0;fillColor=none;points=[[0,0.5],[1,0.5]];portConstraint=eastwest;" vertex="1" parent="Sn8MXv950jrQbH95oBH5-33">
          <mxGeometry width="180" height="40" as="geometry" />
        </mxCell>
        <mxCell id="Sn8MXv950jrQbH95oBH5-35" value="" style="shape=partialRectangle;html=1;whiteSpace=wrap;connectable=0;fillColor=none;top=0;left=0;bottom=0;right=0;overflow=hidden;" vertex="1" parent="Sn8MXv950jrQbH95oBH5-34">
          <mxGeometry width="60" height="40" as="geometry">
            <mxRectangle width="60" height="40" as="alternateBounds" />
          </mxGeometry>
        </mxCell>
        <mxCell id="Sn8MXv950jrQbH95oBH5-36" value="" style="shape=partialRectangle;html=1;whiteSpace=wrap;connectable=0;fillColor=none;top=0;left=0;bottom=0;right=0;overflow=hidden;" vertex="1" parent="Sn8MXv950jrQbH95oBH5-34">
          <mxGeometry x="60" width="60" height="40" as="geometry">
            <mxRectangle width="60" height="40" as="alternateBounds" />
          </mxGeometry>
        </mxCell>
        <mxCell id="Sn8MXv950jrQbH95oBH5-37" value="" style="shape=partialRectangle;html=1;whiteSpace=wrap;connectable=0;fillColor=none;top=0;left=0;bottom=0;right=0;overflow=hidden;" vertex="1" parent="Sn8MXv950jrQbH95oBH5-34">
          <mxGeometry x="120" width="60" height="40" as="geometry">
            <mxRectangle width="60" height="40" as="alternateBounds" />
          </mxGeometry>
        </mxCell>
        <mxCell id="Sn8MXv950jrQbH95oBH5-90" value="" style="curved=1;endArrow=classic;html=1;rounded=0;fontFamily=Times New Roman;fontSize=18;fillColor=#e1d5e7;strokeColor=#9673a6;startArrow=classic;startFill=1;strokeWidth=2;" edge="1" parent="Sn8MXv950jrQbH95oBH5-33">
          <mxGeometry width="50" height="50" relative="1" as="geometry">
            <mxPoint x="30" as="sourcePoint" />
            <mxPoint x="145" as="targetPoint" />
            <Array as="points">
              <mxPoint x="90" y="-105" />
            </Array>
          </mxGeometry>
        </mxCell>
        <mxCell id="Sn8MXv950jrQbH95oBH5-93" value="" style="curved=1;endArrow=classic;html=1;rounded=0;fontFamily=Times New Roman;fontSize=18;fillColor=#e1d5e7;strokeColor=#9673a6;startArrow=classic;startFill=1;strokeWidth=2;exitX=0.165;exitY=-0.021;exitDx=0;exitDy=0;exitPerimeter=0;entryX=0.498;entryY=0.004;entryDx=0;entryDy=0;entryPerimeter=0;" edge="1" parent="Sn8MXv950jrQbH95oBH5-33" source="Sn8MXv950jrQbH95oBH5-34" target="Sn8MXv950jrQbH95oBH5-34">
          <mxGeometry width="50" height="50" relative="1" as="geometry">
            <mxPoint x="52.40000000000009" y="20.440000000000055" as="sourcePoint" />
            <mxPoint x="165" y="20" as="targetPoint" />
            <Array as="points">
              <mxPoint x="60" y="-105" />
            </Array>
          </mxGeometry>
        </mxCell>
        <mxCell id="Sn8MXv950jrQbH95oBH5-46" value="" style="shape=table;html=1;whiteSpace=wrap;startSize=0;container=1;collapsible=0;childLayout=tableLayout;fillColor=#dae8fc;strokeColor=#6c8ebf;" vertex="1" parent="1">
          <mxGeometry x="270" y="425" width="180" height="40" as="geometry" />
        </mxCell>
        <mxCell id="Sn8MXv950jrQbH95oBH5-47" value="" style="shape=tableRow;horizontal=0;startSize=0;swimlaneHead=0;swimlaneBody=0;top=0;left=0;bottom=0;right=0;collapsible=0;dropTarget=0;fillColor=none;points=[[0,0.5],[1,0.5]];portConstraint=eastwest;" vertex="1" parent="Sn8MXv950jrQbH95oBH5-46">
          <mxGeometry width="180" height="40" as="geometry" />
        </mxCell>
        <mxCell id="Sn8MXv950jrQbH95oBH5-48" value="" style="shape=partialRectangle;html=1;whiteSpace=wrap;connectable=0;fillColor=none;top=0;left=0;bottom=0;right=0;overflow=hidden;" vertex="1" parent="Sn8MXv950jrQbH95oBH5-47">
          <mxGeometry width="60" height="40" as="geometry">
            <mxRectangle width="60" height="40" as="alternateBounds" />
          </mxGeometry>
        </mxCell>
        <mxCell id="Sn8MXv950jrQbH95oBH5-49" value="" style="shape=partialRectangle;html=1;whiteSpace=wrap;connectable=0;fillColor=none;top=0;left=0;bottom=0;right=0;overflow=hidden;" vertex="1" parent="Sn8MXv950jrQbH95oBH5-47">
          <mxGeometry x="60" width="60" height="40" as="geometry">
            <mxRectangle width="60" height="40" as="alternateBounds" />
          </mxGeometry>
        </mxCell>
        <mxCell id="Sn8MXv950jrQbH95oBH5-50" value="" style="shape=partialRectangle;html=1;whiteSpace=wrap;connectable=0;fillColor=none;top=0;left=0;bottom=0;right=0;overflow=hidden;" vertex="1" parent="Sn8MXv950jrQbH95oBH5-47">
          <mxGeometry x="120" width="60" height="40" as="geometry">
            <mxRectangle width="60" height="40" as="alternateBounds" />
          </mxGeometry>
        </mxCell>
        <mxCell id="Sn8MXv950jrQbH95oBH5-51" value="" style="shape=table;html=1;whiteSpace=wrap;startSize=0;container=1;collapsible=0;childLayout=tableLayout;fillColor=#f8cecc;strokeColor=#b85450;" vertex="1" parent="1">
          <mxGeometry x="450" y="425" width="180" height="40" as="geometry" />
        </mxCell>
        <mxCell id="Sn8MXv950jrQbH95oBH5-52" value="" style="shape=tableRow;horizontal=0;startSize=0;swimlaneHead=0;swimlaneBody=0;top=0;left=0;bottom=0;right=0;collapsible=0;dropTarget=0;fillColor=none;points=[[0,0.5],[1,0.5]];portConstraint=eastwest;" vertex="1" parent="Sn8MXv950jrQbH95oBH5-51">
          <mxGeometry width="180" height="40" as="geometry" />
        </mxCell>
        <mxCell id="Sn8MXv950jrQbH95oBH5-53" value="" style="shape=partialRectangle;html=1;whiteSpace=wrap;connectable=0;fillColor=none;top=0;left=0;bottom=0;right=0;overflow=hidden;" vertex="1" parent="Sn8MXv950jrQbH95oBH5-52">
          <mxGeometry width="60" height="40" as="geometry">
            <mxRectangle width="60" height="40" as="alternateBounds" />
          </mxGeometry>
        </mxCell>
        <mxCell id="Sn8MXv950jrQbH95oBH5-54" value="" style="shape=partialRectangle;html=1;whiteSpace=wrap;connectable=0;fillColor=none;top=0;left=0;bottom=0;right=0;overflow=hidden;" vertex="1" parent="Sn8MXv950jrQbH95oBH5-52">
          <mxGeometry x="60" width="60" height="40" as="geometry">
            <mxRectangle width="60" height="40" as="alternateBounds" />
          </mxGeometry>
        </mxCell>
        <mxCell id="Sn8MXv950jrQbH95oBH5-55" value="" style="shape=partialRectangle;html=1;whiteSpace=wrap;connectable=0;fillColor=none;top=0;left=0;bottom=0;right=0;overflow=hidden;" vertex="1" parent="Sn8MXv950jrQbH95oBH5-52">
          <mxGeometry x="120" width="60" height="40" as="geometry">
            <mxRectangle width="60" height="40" as="alternateBounds" />
          </mxGeometry>
        </mxCell>
        <mxCell id="Sn8MXv950jrQbH95oBH5-78" value="" style="shape=curlyBracket;whiteSpace=wrap;html=1;rounded=1;labelPosition=left;verticalLabelPosition=middle;align=right;verticalAlign=middle;rotation=-90;size=0.5;" vertex="1" parent="1">
          <mxGeometry x="170" y="390" width="20" height="180" as="geometry" />
        </mxCell>
        <mxCell id="Sn8MXv950jrQbH95oBH5-79" value="&lt;font style=&quot;font-size: 18px;&quot;&gt;$$w_{t-1}$$&lt;/font&gt;" style="text;html=1;strokeColor=none;fillColor=none;align=center;verticalAlign=middle;whiteSpace=wrap;rounded=0;" vertex="1" parent="1">
          <mxGeometry x="150" y="490" width="60" height="30" as="geometry" />
        </mxCell>
        <mxCell id="Sn8MXv950jrQbH95oBH5-81" value="" style="curved=1;endArrow=classic;html=1;rounded=0;fontFamily=Times New Roman;fontSize=18;exitX=0.5;exitY=1;exitDx=0;exitDy=0;entryX=0.5;entryY=1;entryDx=0;entryDy=0;fillColor=#fff2cc;strokeColor=#d6b656;startArrow=classic;startFill=1;strokeWidth=2;" edge="1" parent="1" source="Sn8MXv950jrQbH95oBH5-79" target="Sn8MXv950jrQbH95oBH5-86">
          <mxGeometry width="50" height="50" relative="1" as="geometry">
            <mxPoint x="290" y="380" as="sourcePoint" />
            <mxPoint x="340" y="330" as="targetPoint" />
            <Array as="points">
              <mxPoint x="260" y="640" />
            </Array>
          </mxGeometry>
        </mxCell>
        <mxCell id="Sn8MXv950jrQbH95oBH5-83" value="" style="curved=1;endArrow=classic;html=1;rounded=0;fontFamily=Times New Roman;fontSize=18;exitX=0.5;exitY=1;exitDx=0;exitDy=0;entryX=0.5;entryY=1;entryDx=0;entryDy=0;fillColor=#fff2cc;strokeColor=#d6b656;startArrow=classic;startFill=1;strokeWidth=2;" edge="1" parent="1" source="Sn8MXv950jrQbH95oBH5-79" target="Sn8MXv950jrQbH95oBH5-88">
          <mxGeometry width="50" height="50" relative="1" as="geometry">
            <mxPoint x="193.42000000000007" y="433.3599999999999" as="sourcePoint" />
            <mxPoint x="554.5" y="434.3599999999999" as="targetPoint" />
            <Array as="points">
              <mxPoint x="360" y="640" />
            </Array>
          </mxGeometry>
        </mxCell>
        <mxCell id="Sn8MXv950jrQbH95oBH5-84" value="" style="shape=curlyBracket;whiteSpace=wrap;html=1;rounded=1;labelPosition=left;verticalLabelPosition=middle;align=right;verticalAlign=middle;rotation=-90;size=0.5;" vertex="1" parent="1">
          <mxGeometry x="350" y="390" width="20" height="180" as="geometry" />
        </mxCell>
        <mxCell id="Sn8MXv950jrQbH95oBH5-85" value="" style="shape=curlyBracket;whiteSpace=wrap;html=1;rounded=1;labelPosition=left;verticalLabelPosition=middle;align=right;verticalAlign=middle;rotation=-90;size=0.5;" vertex="1" parent="1">
          <mxGeometry x="530" y="390" width="20" height="180" as="geometry" />
        </mxCell>
        <mxCell id="Sn8MXv950jrQbH95oBH5-86" value="&lt;font style=&quot;font-size: 18px;&quot;&gt;$$w_{t}$$&lt;/font&gt;" style="text;html=1;strokeColor=none;fillColor=none;align=center;verticalAlign=middle;whiteSpace=wrap;rounded=0;" vertex="1" parent="1">
          <mxGeometry x="330" y="490" width="60" height="30" as="geometry" />
        </mxCell>
        <mxCell id="Sn8MXv950jrQbH95oBH5-88" value="&lt;font style=&quot;font-size: 18px;&quot;&gt;$$w_{t+1}$$&lt;/font&gt;" style="text;html=1;strokeColor=none;fillColor=none;align=center;verticalAlign=middle;whiteSpace=wrap;rounded=0;" vertex="1" parent="1">
          <mxGeometry x="510" y="490" width="60" height="30" as="geometry" />
        </mxCell>
        <mxCell id="Sn8MXv950jrQbH95oBH5-89" value="" style="curved=1;endArrow=classic;html=1;rounded=0;fontFamily=Times New Roman;fontSize=18;exitX=0.5;exitY=1;exitDx=0;exitDy=0;entryX=0.5;entryY=1;entryDx=0;entryDy=0;fillColor=#fff2cc;strokeColor=#d6b656;startArrow=classic;startFill=1;strokeWidth=2;" edge="1" parent="1" source="Sn8MXv950jrQbH95oBH5-86" target="Sn8MXv950jrQbH95oBH5-88">
          <mxGeometry width="50" height="50" relative="1" as="geometry">
            <mxPoint x="190" y="530" as="sourcePoint" />
            <mxPoint x="370" y="530" as="targetPoint" />
            <Array as="points">
              <mxPoint x="450" y="640" />
            </Array>
          </mxGeometry>
        </mxCell>
        <mxCell id="Sn8MXv950jrQbH95oBH5-92" value="" style="curved=1;endArrow=classic;html=1;rounded=0;fontFamily=Times New Roman;fontSize=18;fillColor=#e1d5e7;strokeColor=#9673a6;startArrow=classic;startFill=1;strokeWidth=2;exitX=0.18;exitY=0.011;exitDx=0;exitDy=0;exitPerimeter=0;entryX=0.797;entryY=0.036;entryDx=0;entryDy=0;entryPerimeter=0;" edge="1" parent="1" target="Sn8MXv950jrQbH95oBH5-34">
          <mxGeometry width="50" height="50" relative="1" as="geometry">
            <mxPoint x="180.00000000000009" y="425.44000000000005" as="sourcePoint" />
            <mxPoint x="230" y="425" as="targetPoint" />
            <Array as="points">
              <mxPoint x="210" y="320" />
            </Array>
          </mxGeometry>
        </mxCell>
        <mxCell id="Sn8MXv950jrQbH95oBH5-103" value="" style="curved=1;endArrow=classic;html=1;rounded=0;fontFamily=Times New Roman;fontSize=18;fillColor=#e1d5e7;strokeColor=#9673a6;startArrow=classic;startFill=1;strokeWidth=2;" edge="1" parent="1">
          <mxGeometry width="50" height="50" relative="1" as="geometry">
            <mxPoint x="300.3" y="425" as="sourcePoint" />
            <mxPoint x="415.3" y="425" as="targetPoint" />
            <Array as="points">
              <mxPoint x="360.3" y="320" />
            </Array>
          </mxGeometry>
        </mxCell>
        <mxCell id="Sn8MXv950jrQbH95oBH5-104" value="" style="curved=1;endArrow=classic;html=1;rounded=0;fontFamily=Times New Roman;fontSize=18;fillColor=#e1d5e7;strokeColor=#9673a6;startArrow=classic;startFill=1;strokeWidth=2;exitX=0.165;exitY=-0.021;exitDx=0;exitDy=0;exitPerimeter=0;entryX=0.498;entryY=0.004;entryDx=0;entryDy=0;entryPerimeter=0;" edge="1" parent="1">
          <mxGeometry width="50" height="50" relative="1" as="geometry">
            <mxPoint x="300.00000000000006" y="424.15999999999997" as="sourcePoint" />
            <mxPoint x="359.9400000000001" y="425.15999999999997" as="targetPoint" />
            <Array as="points">
              <mxPoint x="330.3" y="320" />
            </Array>
          </mxGeometry>
        </mxCell>
        <mxCell id="Sn8MXv950jrQbH95oBH5-105" value="" style="curved=1;endArrow=classic;html=1;rounded=0;fontFamily=Times New Roman;fontSize=18;fillColor=#e1d5e7;strokeColor=#9673a6;startArrow=classic;startFill=1;strokeWidth=2;exitX=0.18;exitY=0.011;exitDx=0;exitDy=0;exitPerimeter=0;entryX=0.797;entryY=0.036;entryDx=0;entryDy=0;entryPerimeter=0;" edge="1" parent="1">
          <mxGeometry width="50" height="50" relative="1" as="geometry">
            <mxPoint x="360.3" y="425.44000000000005" as="sourcePoint" />
            <mxPoint x="413.76000000000005" y="426.44000000000005" as="targetPoint" />
            <Array as="points">
              <mxPoint x="390.3" y="320" />
            </Array>
          </mxGeometry>
        </mxCell>
        <mxCell id="Sn8MXv950jrQbH95oBH5-106" value="" style="curved=1;endArrow=classic;html=1;rounded=0;fontFamily=Times New Roman;fontSize=18;fillColor=#e1d5e7;strokeColor=#9673a6;startArrow=classic;startFill=1;strokeWidth=2;" edge="1" parent="1">
          <mxGeometry width="50" height="50" relative="1" as="geometry">
            <mxPoint x="480.3" y="424" as="sourcePoint" />
            <mxPoint x="595.3" y="424" as="targetPoint" />
            <Array as="points">
              <mxPoint x="540.3" y="319" />
            </Array>
          </mxGeometry>
        </mxCell>
        <mxCell id="Sn8MXv950jrQbH95oBH5-107" value="" style="curved=1;endArrow=classic;html=1;rounded=0;fontFamily=Times New Roman;fontSize=18;fillColor=#e1d5e7;strokeColor=#9673a6;startArrow=classic;startFill=1;strokeWidth=2;exitX=0.165;exitY=-0.021;exitDx=0;exitDy=0;exitPerimeter=0;entryX=0.498;entryY=0.004;entryDx=0;entryDy=0;entryPerimeter=0;" edge="1" parent="1">
          <mxGeometry width="50" height="50" relative="1" as="geometry">
            <mxPoint x="480.00000000000006" y="423.15999999999997" as="sourcePoint" />
            <mxPoint x="539.94" y="424.15999999999997" as="targetPoint" />
            <Array as="points">
              <mxPoint x="510.3" y="319" />
            </Array>
          </mxGeometry>
        </mxCell>
        <mxCell id="Sn8MXv950jrQbH95oBH5-108" value="" style="curved=1;endArrow=classic;html=1;rounded=0;fontFamily=Times New Roman;fontSize=18;fillColor=#e1d5e7;strokeColor=#9673a6;startArrow=classic;startFill=1;strokeWidth=2;exitX=0.18;exitY=0.011;exitDx=0;exitDy=0;exitPerimeter=0;entryX=0.797;entryY=0.036;entryDx=0;entryDy=0;entryPerimeter=0;" edge="1" parent="1">
          <mxGeometry width="50" height="50" relative="1" as="geometry">
            <mxPoint x="540.3" y="424.44000000000005" as="sourcePoint" />
            <mxPoint x="593.76" y="425.44000000000005" as="targetPoint" />
            <Array as="points">
              <mxPoint x="570.3" y="319" />
            </Array>
          </mxGeometry>
        </mxCell>
      </root>
    </mxGraphModel>
  </diagram>
</mxfile>
